<?xml version="1.0" standalone="no"?><!DOCTYPE svg PUBLIC "-//W3C//DTD SVG 1.1//EN" "http://www.w3.org/Graphics/SVG/1.1/DTD/svg11.dtd"><svg t="1663857545546" class="icon" viewBox="0 0 1024 1024" version="1.1" xmlns="http://www.w3.org/2000/svg" p-id="894" width="128" height="128" xmlns:xlink="http://www.w3.org/1999/xlink"><path d="M185.782857 209.188571c-36.571429 0-71.68 4.388571-105.325714 13.165715-5.851429 27.794286-8.777143 57.051429-8.777143 87.771428 0 242.834286 196.022857 438.857143 438.857143 438.857143 33.645714 0 67.291429-4.388571 98.011428-11.702857 7.314286-30.72 10.24-61.44 10.24-93.622857 1.462857-239.908571-193.097143-434.468571-433.005714-434.468572z" fill="#A6DCAF" p-id="895"></path><path d="M838.217143 209.188571c36.571429 0 71.68 4.388571 105.325714 13.165715 5.851429 27.794286 8.777143 57.051429 8.777143 87.771428 0 242.834286-196.022857 438.857143-438.857143 438.857143-33.645714 0-67.291429-4.388571-98.011428-11.702857-7.314286-30.72-10.24-61.44-10.24-93.622857-1.462857-239.908571 193.097143-434.468571 433.005714-434.468572z" fill="#C2F2C2" p-id="896"></path><path d="M490.057143 915.748571c-23.405714 4.388571-46.811429-11.702857-51.2-35.108571L406.674286 702.171429c-4.388571-23.405714 11.702857-46.811429 35.108571-51.2 23.405714-4.388571 46.811429 11.702857 51.2 35.108571l30.72 178.468571c5.851429 24.868571-10.24 46.811429-33.645714 51.2z" fill="#C2F2C2" p-id="897"></path><path d="M488.594286 181.394286m-73.142857 0a73.142857 73.142857 0 1 0 146.285714 0 73.142857 73.142857 0 1 0-146.285714 0Z" fill="#FFFFFF" p-id="898"></path></svg>