<?xml version="1.0" standalone="no"?><!DOCTYPE svg PUBLIC "-//W3C//DTD SVG 1.1//EN" "http://www.w3.org/Graphics/SVG/1.1/DTD/svg11.dtd"><svg t="1663858260917" class="icon" viewBox="0 0 1024 1024" version="1.1" xmlns="http://www.w3.org/2000/svg" p-id="2702" xmlns:xlink="http://www.w3.org/1999/xlink" width="128" height="128"><path d="M512 1024c-81.828571 0-160-6.971429-220.114286-19.771429-31.085714-6.628571-56.228571-14.514286-74.857143-23.657142-41.485714-20.342857-50.285714-47.428571-50.285714-66.628572V474.4c0-44.457143 16.914286-87.2 50.285714-127.2 25.942857-31.085714 56.8-54.4 78.857143-69.828571 3.542857-5.714286 16.8-30.742857 35.885715-112.114286-2.628571-6.971429-4.114286-14.4-4.114286-22.057143 0-4.114286 0.342857-8.228571 0.914286-12.228571-2.4-5.714286-3.657143-12.114286-3.657143-18.628572V108.571429l8.8-54.742858c2.857143-28 26.857143-49.6 58.057143-51.085714C411.885714 1.714286 454.057143 0 512 0s100.114286 1.714286 120.114286 2.742857h0.228571c31.085714 1.714286 54.971429 23.2 57.828572 50.971429l8.8 54.857143v3.771428c0 6.171429-1.257143 12.457143-3.657143 18.514286 0.685714 4.114286 0.914286 8.228571 0.914285 12.457143 0 7.657143-1.371429 15.085714-4.114285 22.057143 19.085714 81.371429 32.342857 106.4 35.885714 112.114285 22.057143 15.428571 52.914286 38.742857 78.857143 69.828572 33.371429 39.885714 50.285714 82.742857 50.285714 127.2v439.542857c0 19.2-8.685714 46.285714-50.285714 66.628571-18.628571 9.142857-43.771429 17.028571-74.857143 23.657143C672 1017.028571 593.828571 1024 512 1024z" fill="#25467A" p-id="2703"></path><path d="M697.371429 314.742857c-21.714286-14.971429-44-101.142857-56.685715-158.4 4.8-3.542857 7.314286-7.771429 7.314286-13.028571 0-9.828571-4.571429-22.628571-17.142857-34.4-0.571429-2.742857-0.8-4.228571-0.8-4.228572h-4.114286c-19.771429-15.542857-54.971429-28.457143-114.057143-28.457143s-94.285714 12.8-114.057143 28.457143h-4.114285s-0.228571 1.485714-0.8 4.228572c-12.571429 11.771429-17.142857 24.685714-17.142857 34.4 0 5.257143 2.514286 9.485714 7.314285 13.028571-12.685714 57.257143-34.857143 143.428571-56.685714 158.4-44.571429 30.742857-111.771429 84.914286-111.771429 159.771429v439.542857c0 32.8 133.028571 62.057143 297.142858 62.057143s297.142857-29.257143 297.142857-62.057143V474.4c0.228571-74.742857-66.857143-128.914286-111.542857-159.657143z" fill="#33691E" p-id="2704"></path><path d="M512 964.571429c-77.828571 0-151.657143-6.514286-207.771429-18.514286-64.685714-13.714286-77.942857-28.8-77.942857-32.114286V474.4c0-30.171429 12.228571-60.114286 36.457143-89.028571 22.628571-27.085714 50.971429-48 70.285714-61.257143 7.657143-5.257143 19.657143-18.171429 36.114286-69.257143 8.342857-25.828571 16.8-58.171429 25.257143-96.114286l1.6-7.314286-6.057143-4.457142c-2.742857-1.942857-2.742857-3.2-2.742857-3.771429 0-4 1.371429-14.628571 13.6-26.171429l1.942857-1.828571 2.171429-1.714286c14.971429-11.885714 45.714286-25.942857 106.971428-25.942857 61.257143 0 92 14.171429 106.971429 25.942857l2.171428 1.714286 1.942858 1.828571c12.228571 11.542857 13.6 22.057143 13.6 26.171429 0 0.685714 0 1.828571-2.742858 3.771429l-6.057142 4.457142 1.6 7.314286C661.485714 304 683.428571 319.085714 690.742857 324.114286c19.314286 13.371429 47.657143 34.171429 70.285714 61.257143 24.228571 28.914286 36.457143 58.971429 36.457143 89.028571v439.542857c0 3.314286-13.257143 18.4-77.942857 32.114286C663.657143 958.057143 589.828571 964.571429 512 964.571429z" fill="#558B2F" p-id="2705"></path><path d="M510.628571 87.542857c-5.257143 10.514286-8.914286 21.028571-11.428571 25.942857l-0.914286 1.714286-0.8 1.828571c-4.914286 11.428571-5.485714 22.057143-5.485714 26.057143 0 0.685714 0 1.828571 1.142857 3.771429l2.4 4.342857-0.685714 7.314286c-3.428571 37.942857-6.857143 70.285714-10.171429 96.114285-6.628571 51.2-11.542857 64-14.628571 69.257143-7.771429 13.371429-19.2 34.171429-28.342857 61.257143-9.714286 28.914286-14.742857 58.857143-14.742857 89.028572v487.428571c-45.6-2.971429-87.657143-8.342857-122.742858-15.771429-64.685714-13.714286-77.942857-28.8-77.942857-32.114285V474.4c0-30.171429 12.228571-60.114286 36.457143-89.028571 22.628571-27.085714 50.971429-48 70.285714-61.257143 7.657143-5.257143 19.657143-18.171429 36.114286-69.257143 8.342857-25.828571 16.8-58.171429 25.257143-96.114286l1.6-7.314286-6.057143-4.342857c-2.742857-1.942857-2.742857-3.2-2.742857-3.771428 0-4 1.371429-14.628571 13.6-26.057143l1.942857-1.828572 2.171429-1.714285c14.971429-11.885714 45.371429-25.942857 105.714285-26.171429z" fill="#5C9633" p-id="2706"></path><path d="M512 859.2c-106.857143 0-209.828571-17.485714-289.942857-49.257143l-7.2-2.857143V503.657143l7.2-2.857143c80.114286-31.771429 183.085714-49.257143 289.942857-49.257143s209.828571 17.485714 289.942857 49.257143l7.2 2.857143v303.542857l-7.2 2.857143c-80.114286 31.657143-183.085714 49.142857-289.942857 49.142857z" fill="#7CB342" p-id="2707"></path><path d="M797.714286 511.314286v288c-76 30.171429-176.114286 48.457143-285.714286 48.457143s-209.714286-18.285714-285.714286-48.457143v-288C302.285714 481.142857 402.4 462.857143 512 462.857143s209.714286 18.4 285.714286 48.457143z" fill="#FCE68D" p-id="2708"></path><path d="M770.971429 917.942857c0 19.542857-115.885714 42.285714-258.971429 42.285714s-258.971429-22.742857-258.971429-42.285714 115.885714-28.457143 258.971429-28.457143 258.971429 8.8 258.971429 28.457143z" fill="#285217" p-id="2709"></path><path d="M675.314286 321.942857c-23.885714-8.685714-92.571429 1.828571-163.314286 1.828572s-139.314286-10.514286-163.314286-1.828572c-23.885714 8.685714-90.971429 74.628571-63.771428 59.428572 27.2-15.2 107.314286-39.085714 227.085714-39.085715s199.885714 23.885714 227.085714 39.085715c27.2 15.2-39.885714-50.742857-63.771428-59.428572zM620.685714 149.257143c0 2.857143-48.685714 5.714286-108.685714 5.714286s-108.685714-2.857143-108.685714-5.714286 48.685714-4.457143 108.685714-4.457143 108.685714 1.6 108.685714 4.457143z" fill="#33691E" p-id="2710"></path><path d="M629.714286 50.628571c-19.542857-1.028571-61.142857-2.628571-117.714286-2.628571s-98.057143 1.6-117.714286 2.628571c-7.2 0.342857-12.685714 4.114286-12.685714 8.685715l-8.457143 53.028571c0 3.885714 84.342857 5.828571 138.857143 5.828572s138.857143-1.942857 138.857143-5.828572l-8.457143-53.028571c0-4.571429-5.485714-8.342857-12.685714-8.685715z" fill="#9CCC65" p-id="2711"></path><path d="M512 756.571429c-35.314286 0-64-28.685714-64-64 0-7.085714 5.714286-12.8 12.8-12.8s12.8 5.714286 12.8 12.8c0 21.257143 17.142857 38.4 38.4 38.4s38.4-17.142857 38.4-38.4c0-7.085714 5.714286-12.8 12.8-12.8s12.8 5.714286 12.8 12.8c0 35.314286-28.685714 64-64 64zM345.6 590.171429c0 21.257143 17.142857 38.4 38.4 38.4s38.4-17.142857 38.4-38.4-17.142857-38.4-38.4-38.4c-21.142857 0-38.4 17.142857-38.4 38.4zM601.6 590.171429c0 21.257143 17.142857 38.4 38.4 38.4s38.4-17.142857 38.4-38.4-17.142857-38.4-38.4-38.4c-21.142857 0-38.4 17.142857-38.4 38.4z" fill="#25467A" p-id="2712"></path><path d="M332.8 654.171429h-51.2c-14.171429 0-25.6 11.428571-25.6 25.6s11.428571 25.6 25.6 25.6h51.2c14.171429 0 25.6-11.428571 25.6-25.6s-11.428571-25.6-25.6-25.6z m409.6 0h-51.2c-14.171429 0-25.6 11.428571-25.6 25.6s11.428571 25.6 25.6 25.6h51.2c14.171429 0 25.6-11.428571 25.6-25.6s-11.428571-25.6-25.6-25.6z" fill="#689F38" p-id="2713"></path><path d="M669.942857 263.885714c-44.685714 5.257143-99.085714 40.685714-157.942857 40.685715s-113.257143-35.428571-157.942857-40.685715c8.114286-23.2 15.657143-50.857143 21.942857-76.571428 40.114286-3.771429 86.514286-5.942857 136-5.942857s95.885714 2.171429 136 5.942857c6.171429 25.714286 13.714286 53.371429 21.942857 76.571428z" fill="#7CB342" p-id="2714"></path><path d="M512 293.142857c-32.228571 0-63.2-11.314286-93.257143-22.4-17.257143-6.285714-33.714286-12.342857-49.6-15.885714 5.257143-16.342857 10.628571-35.428571 16-57.028572 38.857143-3.428571 82.514286-5.142857 126.857143-5.142857s88 1.828571 126.857143 5.142857c5.371429 21.6 10.742857 40.685714 16 57.028572-15.885714 3.542857-32.342857 9.6-49.6 15.885714-30.057143 10.971429-61.028571 22.4-93.257143 22.4z" fill="#FCE68D" p-id="2715"></path><path d="M268.228571 406.742857c10.057143-6.742857 26.971429-11.2 33.371429-4.342857 8.228571 8.8 0.114286 37.028571-18.857143 44.914286-10.857143 4.571429-26.971429 3.085714-31.885714-5.828572-5.828571-10.4 5.828571-26.971429 17.371428-34.742857z" fill="#FFFFFF" p-id="2716"></path><path d="M490.742857 112c0 2.171429-0.114286 4.228571-0.457143 6.171429-11.085714-0.114286-22.628571-0.228571-33.942857-0.457143-0.228571-1.828571-0.342857-3.771429-0.342857-5.714286 0-15.771429 3.428571-28.571429 17.371429-28.571429s17.371429 12.8 17.371428 28.571429zM452.114286 112c0 1.942857-0.114286 3.771429-0.342857 5.6-12-0.228571-23.657143-0.571429-34.057143-0.914286-0.114286-1.485714-0.228571-3.085714-0.228572-4.571428 0-15.771429 3.428571-28.571429 17.371429-28.571429 13.828571-0.114286 17.257143 12.685714 17.257143 28.457143zM413.485714 112c0 1.485714-0.114286 2.971429-0.228571 4.457143-15.2-0.571429-27.542857-1.371429-34.4-2.4V112c0-15.771429 3.428571-28.571429 17.371428-28.571429 13.828571 0 17.257143 12.8 17.257143 28.571429zM568 112c0 1.942857-0.114286 3.885714-0.342857 5.714286-11.314286 0.228571-22.857143 0.342857-33.942857 0.457143-0.228571-1.942857-0.457143-4-0.457143-6.171429 0-15.771429 3.428571-28.571429 17.371428-28.571429S568 96.228571 568 112zM529.371429 112c0 2.171429-0.114286 4.228571-0.457143 6.171429h-33.828572c-0.228571-1.942857-0.457143-4.114286-0.457143-6.171429 0-15.771429 3.428571-28.571429 17.371429-28.571429s17.371429 12.8 17.371429 28.571429zM645.257143 112v2.057143c-6.857143 0.914286-19.2 1.714286-34.4 2.4-0.114286-1.485714-0.228571-2.971429-0.228572-4.457143 0-15.771429 3.428571-28.571429 17.371429-28.571429 13.828571 0 17.257143 12.8 17.257143 28.571429zM606.628571 112c0 1.6-0.114286 3.085714-0.228571 4.571429-10.514286 0.342857-22.171429 0.685714-34.057143 0.914285-0.228571-1.828571-0.342857-3.657143-0.342857-5.6 0-15.771429 3.428571-28.571429 17.371429-28.571428 13.828571 0.114286 17.257143 12.914286 17.257142 28.685714z" fill="#7CB342" p-id="2717"></path></svg>